<svg xmlns="http://www.w3.org/2000/svg" version="1.1" xmlns:xlink="http://www.w3.org/1999/xlink" xmlns:svgjs="http://svgjs.dev/svgjs" width="1920" height="1080" preserveAspectRatio="none" viewBox="0 0 1920 1080">
    <g mask="url(&quot;#SvgjsMask1003&quot;)" fill="none">
        <rect width="1920" height="1080" x="0" y="0" fill="rgba(217, 235, 255, 1)"></rect>
        <path d="M1661.73 340.84a18.48 18.48 0 1 0 9.69-35.67z" stroke="rgba(231, 54, 53, 1)"></path>
        <path d="M871.83 20.14L907.97 20.14L907.97 56.28L871.83 56.28z" stroke="rgba(0, 36, 247, 0.67)"></path>
        <path d="M69.88 261.66L150.51 261.66L150.51 342.29L69.88 342.29z" stroke="rgba(0, 36, 247, 0.67)"></path>
        <path d="M373.8 920.24a56.84 56.84 0 1 0-79.31-81.44z" stroke="rgba(231, 54, 53, 1)"></path>
        <path d="M1527.52 546.2L1560 546.2L1560 584.17L1527.52 584.17z" stroke="rgba(0, 36, 247, 0.67)"></path>
        <path d="M742.18 707.01 a10.82 10.82 0 1 0 21.64 0 a10.82 10.82 0 1 0 -21.64 0z" fill="rgba(0, 36, 247, 0.67)"></path>
        <path d="M1739.95 701.6L1740.62 701.6L1740.62 752.76L1739.95 752.76z" stroke="rgba(231, 54, 53, 1)"></path>
        <path d="M785.51 713.54L872.56 713.54L872.56 800.59L785.51 800.59z" stroke="rgba(231, 54, 53, 1)"></path>
        <path d="M222.06 1020.62a54.86 54.86 0 1 0 109.66 3.38z" stroke="rgba(0, 36, 247, 0.67)"></path>
        <path d="M1209.69 495.53a33.55 33.55 0 1 0-66.93 4.76z" fill="rgba(0, 36, 247, 0.67)"></path>
        <path d="M1670.59 715.94L1713.59 715.94L1713.59 774.61L1670.59 774.61z" fill="rgba(231, 54, 53, 1)"></path>
        <path d="M776.18 756.12L814.2 756.12L814.2 769.7L776.18 769.7z" fill="rgba(0, 36, 247, 0.67)"></path>
        <path d="M1777.4 809.51a43.12 43.12 0 1 0-31.56-80.26z" stroke="rgba(0, 36, 247, 0.67)"></path>
        <path d="M295.99 944.47L373.45 944.47L373.45 1021.93L295.99 1021.93z" fill="rgba(0, 36, 247, 0.67)"></path>
        <path d="M810.57 485.52a107.1 107.1 0 1 0 168.88-131.76z" stroke="rgba(0, 36, 247, 0.67)"></path>
        <path d="M622.37 570.93 a47.4 47.4 0 1 0 94.8 0 a47.4 47.4 0 1 0 -94.8 0z" fill="rgba(231, 54, 53, 1)"></path>
        <path d="M1290.23 790.07L1355.95 790.07L1355.95 873.62L1290.23 873.62z" stroke="rgba(231, 54, 53, 1)"></path>
        <path d="M1516.98 1043.99L1534.32 1043.99L1534.32 1104.85L1516.98 1104.85z" fill="rgba(0, 36, 247, 0.67)"></path>
        <path d="M1258.37 929.42 a73.34 73.34 0 1 0 146.68 0 a73.34 73.34 0 1 0 -146.68 0z" stroke="rgba(231, 54, 53, 1)"></path>
        <path d="M1314.14 289.2L1399.51 289.2L1399.51 335.09L1314.14 335.09z" fill="rgba(0, 36, 247, 0.67)"></path>
        <path d="M122.39 303.13 a25.68 25.68 0 1 0 51.36 0 a25.68 25.68 0 1 0 -51.36 0z" stroke="rgba(0, 36, 247, 0.67)"></path>
        <path d="M118.27 703.82L184.79 703.82L184.79 715.81L118.27 715.81z" stroke="rgba(231, 54, 53, 1)"></path>
        <path d="M824.72 1033.6 a47.64 47.64 0 1 0 95.28 0 a47.64 47.64 0 1 0 -95.28 0z" stroke="rgba(0, 36, 247, 0.67)"></path>
    </g>
    <defs>
        <mask id="SvgjsMask1003">
            <rect width="1920" height="1080" fill="#ffffff"></rect>
        </mask>
    </defs>
</svg>