<svg xmlns="http://www.w3.org/2000/svg" version="1.1" xmlns:xlink="http://www.w3.org/1999/xlink" xmlns:svgjs="http://svgjs.dev/svgjs" width="1920" height="1080" preserveAspectRatio="none" viewBox="0 0 1920 1080">
    <g mask="url(&quot;#SvgjsMask1047&quot;)" fill="none">
        <rect width="1920" height="1080" x="0" y="0" fill="url(&quot;#SvgjsLinearGradient1048&quot;)"></rect>
        <path d="M693.61 1181.88C906.87 1136.47 1001.93 582.14 1325.3 580.51 1648.66 578.88 1779.74 895.24 1956.98 904.51" stroke="rgba(255, 255, 255, 0.43)" stroke-width="2"></path>
        <path d="M526.02 1193.13C752.73 1190.76 923.51 961.88 1398.59 945.94 1873.67 930 2019.44 456.36 2271.16 438.34" stroke="rgba(255, 255, 255, 0.43)" stroke-width="2"></path>
        <path d="M975.15 1101.14C1163.83 1030.77 1136.92 530.53 1466.37 462.74 1795.81 394.95 1816.46 191.62 1957.58 181.94" stroke="rgba(255, 255, 255, 0.43)" stroke-width="2"></path>
        <path d="M432.97 1218.04C651.96 1206.35 759.52 849.77 1212.17 815.1 1664.82 780.43 1757.14 310.13 1991.37 285.9" stroke="rgba(255, 255, 255, 0.43)" stroke-width="2"></path>
        <path d="M909.9 1191.04C1083.39 1130.56 1019.67 618.42 1369.47 617.54 1719.27 616.66 2044.1 947.18 2288.6 952.34" stroke="rgba(255, 255, 255, 0.43)" stroke-width="2"></path>
    </g>
    <defs>
        <mask id="SvgjsMask1047">
            <rect width="1920" height="1080" fill="#ffffff"></rect>
        </mask>
        <linearGradient x1="0%" y1="50%" x2="100%" y2="50%" gradientUnits="userSpaceOnUse" id="SvgjsLinearGradient1048">
            <stop stop-color="rgba(106, 130, 251, 1)" offset="0"></stop>
            <stop stop-color="rgba(252, 92, 125, 1)" offset="1"></stop>
        </linearGradient>
    </defs>
</svg>